{
  "asset": {
    "generator": "Khronos glTF Blender I/O v0.9.36",
    "version": "2.0"
  },
  "scene": 0,
  "scenes": [
    {
      "name": "Scene",
      "nodes": [
        0,
        1,
        2,
        3
      ]
    }
  ],
  "nodes": [
    {
      "mesh": 0,
      "name": "1_others",
      "scale": [
        76.15799713134766,
        76.15799713134766,
        76.15799713134766
      ],
      "translation": [
        -222.2471466064453,
        5.520564079284668,
        4.354656219482422
      ]
    },
    {
      "mesh": 1,
      "name": "1_Floor",
      "scale": [
        76.15799713134766,
        76.15799713134766,
        76.15799713134766
      ],
      "translation": [
        -43.411808013916016,
        -1.452086091041565,
        -0.15231598913669586
      ]
    },
    {
      "mesh": 2,
      "name": "1_spot",
      "scale": [
        76.15799713134766,
        76.15799713134766,
        76.15799713134766
      ],
      "translation": [
        -90.60127258300781,
        -16.346391677856445,
        0.114236980676651
      ]
    },
    {
      "mesh": 3,
      "name": "1_green",
      "scale": [
        76.1579360961914,
        76.15799713134766,
        76.15799713134766
      ],
      "translation": [
        -71.77447509765625,
        -0.5730053186416626,
        0.11423696577548981
      ]
    }
  ],
  "materials": [
    {
      "doubleSided": true,
      "name": "墙.003",
      "pbrMetallicRoughness": {
        "baseColorFactor": [
          0.08498796075582504,
          0.3641246259212494,
          0.5178602933883667,
          1
        ],
        "metallicFactor": 0,
        "roughnessFactor": 0.5
      }
    },
    {
      "doubleSided": true,
      "name": "室外道路",
      "pbrMetallicRoughness": {
        "baseColorFactor": [
          0.37574952840805054,
          0.37574952840805054,
          0.37574952840805054,
          1
        ],
        "metallicFactor": 0,
        "roughnessFactor": 0.5
      }
    },
    {
      "doubleSided": true,
      "name": "办公椅子",
      "pbrMetallicRoughness": {
        "baseColorFactor": [
          0.7105558514595032,
          0.6633566617965698,
          0.251650333404541,
          1
        ],
        "metallicFactor": 0,
        "roughnessFactor": 0.5
      }
    },
    {
      "doubleSided": true,
      "name": "室外绿地",
      "pbrMetallicRoughness": {
        "baseColorFactor": [
          0.010299492627382278,
          0.3185391426086426,
          0.03821127861738205,
          1
        ],
        "metallicFactor": 0,
        "roughnessFactor": 0.5
      }
    }
  ],
  "meshes": [
    {
      "name": "墙",
      "primitives": [
        {
          "attributes": {
            "POSITION": 0,
            "NORMAL": 1,
            "TEXCOORD_0": 2
          },
          "indices": 3,
          "material": 0
        }
      ]
    },
    {
      "name": "室外道路",
      "primitives": [
        {
          "attributes": {
            "POSITION": 4,
            "NORMAL": 5,
            "TEXCOORD_0": 6
          },
          "indices": 7,
          "material": 1
        }
      ]
    },
    {
      "name": "办公椅子",
      "primitives": [
        {
          "attributes": {
            "POSITION": 8,
            "NORMAL": 9,
            "TEXCOORD_0": 10
          },
          "indices": 11,
          "material": 2
        }
      ]
    },
    {
      "name": "室外场地",
      "primitives": [
        {
          "attributes": {
            "POSITION": 12,
            "NORMAL": 13,
            "TEXCOORD_0": 14
          },
          "indices": 15,
          "material": 3
        }
      ]
    }
  ],
  "accessors": [
    {
      "bufferView": 0,
      "componentType": 5126,
      "count": 841,
      "max": [
        0.1978694647550583,
        0.8509783744812012,
        0.09982076287269592
      ],
      "min": [
        -0.20213063061237335,
        -1.2440217733383179,
        -0.057179246097803116
      ],
      "type": "VEC3"
    },
    {
      "bufferView": 1,
      "componentType": 5126,
      "count": 841,
      "type": "VEC3"
    },
    {
      "bufferView": 2,
      "componentType": 5126,
      "count": 841,
      "type": "VEC2"
    },
    {
      "bufferView": 3,
      "componentType": 5123,
      "count": 1128,
      "type": "SCALAR"
    },
    {
      "bufferView": 4,
      "componentType": 5126,
      "count": 5979,
      "max": [
        2.5206546783447266,
        1.1685333251953125,
        0.001999999862164259
      ],
      "min": [
        -2.7303452491760254,
        -1.2604666948318481,
        -0.0020000003278255463
      ],
      "type": "VEC3"
    },
    {
      "bufferView": 5,
      "componentType": 5126,
      "count": 5979,
      "type": "VEC3"
    },
    {
      "bufferView": 6,
      "componentType": 5126,
      "count": 5979,
      "type": "VEC2"
    },
    {
      "bufferView": 7,
      "componentType": 5123,
      "count": 8268,
      "type": "SCALAR"
    },
    {
      "bufferView": 8,
      "componentType": 5126,
      "count": 504,
      "max": [
        2.6742806434631348,
        1.2161046266555786,
        0.0015000002458691597
      ],
      "min": [
        -1.439719557762146,
        -0.9608954787254333,
        -0.0014999997802078724
      ],
      "type": "VEC3"
    },
    {
      "bufferView": 9,
      "componentType": 5126,
      "count": 504,
      "type": "VEC3"
    },
    {
      "bufferView": 10,
      "componentType": 5126,
      "count": 504,
      "type": "VEC2"
    },
    {
      "bufferView": 11,
      "componentType": 5123,
      "count": 756,
      "type": "SCALAR"
    },
    {
      "bufferView": 12,
      "componentType": 5126,
      "count": 6761,
      "max": [
        2.930074453353882,
        1.1579904556274414,
        0.0015000004786998034
      ],
      "min": [
        -2.534925699234009,
        -1.2760095596313477,
        -0.0014999995473772287
      ],
      "type": "VEC3"
    },
    {
      "bufferView": 13,
      "componentType": 5126,
      "count": 6761,
      "type": "VEC3"
    },
    {
      "bufferView": 14,
      "componentType": 5126,
      "count": 6761,
      "type": "VEC2"
    },
    {
      "bufferView": 15,
      "componentType": 5123,
      "count": 11085,
      "type": "SCALAR"
    }
  ],
  "bufferViews": [
    {
      "buffer": 0,
      "byteLength": 10092,
      "byteOffset": 0
    },
    {
      "buffer": 0,
      "byteLength": 10092,
      "byteOffset": 10092
    },
    {
      "buffer": 0,
      "byteLength": 6728,
      "byteOffset": 20184
    },
    {
      "buffer": 0,
      "byteLength": 2256,
      "byteOffset": 26912
    },
    {
      "buffer": 0,
      "byteLength": 71748,
      "byteOffset": 29168
    },
    {
      "buffer": 0,
      "byteLength": 71748,
      "byteOffset": 100916
    },
    {
      "buffer": 0,
      "byteLength": 47832,
      "byteOffset": 172664
    },
    {
      "buffer": 0,
      "byteLength": 16536,
      "byteOffset": 220496
    },
    {
      "buffer": 0,
      "byteLength": 6048,
      "byteOffset": 237032
    },
    {
      "buffer": 0,
      "byteLength": 6048,
      "byteOffset": 243080
    },
    {
      "buffer": 0,
      "byteLength": 4032,
      "byteOffset": 249128
    },
    {
      "buffer": 0,
      "byteLength": 1512,
      "byteOffset": 253160
    },
    {
      "buffer": 0,
      "byteLength": 81132,
      "byteOffset": 254672
    },
    {
      "buffer": 0,
      "byteLength": 81132,
      "byteOffset": 335804
    },
    {
      "buffer": 0,
      "byteLength": 54088,
      "byteOffset": 416936
    },
    {
      "buffer": 0,
      "byteLength": 22172,
      "byteOffset": 471024
    }
  ],
  "buffers": [
    {
      "uri": "jxqzf_data.bin",
      "byteLength": 493196
    }
  ]
}